<?xml version="1.0" encoding="UTF-8" standalone="no"?>
<!DOCTYPE svg PUBLIC "-//W3C//DTD SVG 1.1//EN"
 "http://www.w3.org/Graphics/SVG/1.1/DTD/svg11.dtd">
<!-- Generated by graphviz version 5.0.1 (0)
 -->
<!-- Title: Rule 35 Pages: 1 -->
<svg width="1897pt" height="2032pt"
 viewBox="12.96 12.96 442.28 474.78" xmlns="http://www.w3.org/2000/svg" xmlns:xlink="http://www.w3.org/1999/xlink">
<g id="graph0" class="graph" transform="scale(4.16667 4.16667) rotate(0) translate(33.12 454.62)">
<title>Rule 35</title>
<polygon fill="white" stroke="none" points="-20.16,20.16 -20.16,-441.66 409.16,-441.66 409.16,20.16 -20.16,20.16"/>
<text text-anchor="middle" x="194.5" y="-403.1" font-family="Times New Roman,serif" font-size="18.00">Rule 35</text>
<!-- 0 -->
<g id="node1" class="node">
<title>0</title>
<ellipse fill="#eef3ff" stroke="#5b6ea6" stroke-width="1.8" cx="143.5" cy="-50.5" rx="50.5" ry="50.5"/>
<text text-anchor="middle" x="143.5" y="-46.1" font-family="Times New Roman,serif" font-size="18.00">0</text>
</g>
<!-- 0&#45;&gt;0 -->
<g id="edge3" class="edge">
<title>0:ne&#45;&gt;0:ne</title>
<path fill="none" stroke="#2ca02c" stroke-width="4.6" d="M179.5,-86.5C131.67,-133.5 0,-133.5 0,-86.5 0,-41.79 119.12,-39.61 171.92,-79.95"/>
<polygon fill="#2ca02c" stroke="#2ca02c" stroke-width="4.6" points="169.3,-83.01 179.5,-86.5 174.56,-76.92 169.3,-83.01"/>
</g>
<!-- 1 -->
<g id="node2" class="node">
<title>1</title>
<ellipse fill="#eef3ff" stroke="#5b6ea6" stroke-width="1.8" cx="143.5" cy="-339.5" rx="50.5" ry="50.5"/>
<text text-anchor="middle" x="143.5" y="-335.1" font-family="Times New Roman,serif" font-size="18.00">1</text>
</g>
<!-- 0&#45;&gt;1 -->
<g id="edge1" class="edge">
<title>0&#45;&gt;1</title>
<path fill="none" stroke="#1f77b4" stroke-width="4.6" d="M163.88,-96.79C186.05,-159.01 187.15,-221.24 167.18,-283.46"/>
<polygon fill="#1f77b4" stroke="#1f77b4" stroke-width="4.6" points="163.33,-282.28 163.94,-293.04 170.96,-284.86 163.33,-282.28"/>
</g>
<!-- 0&#45;&gt;1 -->
<g id="edge2" class="edge">
<title>0&#45;&gt;1</title>
<path fill="none" stroke="#ff7f0e" stroke-width="4.6" d="M157.62,-99.04C171.66,-159.55 172.42,-220.05 159.9,-280.55"/>
<polygon fill="#ff7f0e" stroke="#ff7f0e" stroke-width="4.6" points="155.89,-280.03 157.68,-290.66 163.76,-281.75 155.89,-280.03"/>
</g>
<!-- 0&#45;&gt;1 -->
<g id="edge4" class="edge">
<title>0&#45;&gt;1</title>
<path fill="none" stroke="#d62728" stroke-width="4.6" d="M150.75,-100.74C157.52,-160.1 157.89,-219.47 151.88,-278.83"/>
<polygon fill="#d62728" stroke="#d62728" stroke-width="4.6" points="147.84,-278.76 150.77,-289.14 155.84,-279.62 147.84,-278.76"/>
</g>
<!-- 1&#45;&gt;0 -->
<g id="edge5" class="edge">
<title>1&#45;&gt;0</title>
<path fill="none" stroke="#1f77b4" stroke-width="4.6" d="M143.5,-288.73C143.5,-229.58 143.5,-170.43 143.5,-111.28"/>
<polygon fill="#1f77b4" stroke="#1f77b4" stroke-width="4.6" points="147.53,-111.02 143.5,-101.02 139.48,-111.02 147.53,-111.02"/>
</g>
<!-- 1&#45;&gt;0 -->
<g id="edge6" class="edge">
<title>1&#45;&gt;0</title>
<path fill="none" stroke="#ff7f0e" stroke-width="4.6" d="M136.23,-289.14C129.48,-229.77 129.11,-170.4 135.14,-111.04"/>
<polygon fill="#ff7f0e" stroke="#ff7f0e" stroke-width="4.6" points="139.18,-111.11 136.25,-100.74 131.17,-110.25 139.18,-111.11"/>
</g>
<!-- 1&#45;&gt;0 -->
<g id="edge7" class="edge">
<title>1&#45;&gt;0</title>
<path fill="none" stroke="#2ca02c" stroke-width="4.6" d="M129.32,-290.66C115.32,-230.15 114.6,-169.65 127.16,-109.15"/>
<polygon fill="#2ca02c" stroke="#2ca02c" stroke-width="4.6" points="131.17,-109.67 129.38,-99.04 123.31,-107.95 131.17,-109.67"/>
</g>
<!-- 1&#45;&gt;0 -->
<g id="edge8" class="edge">
<title>1&#45;&gt;0</title>
<path fill="none" stroke="#d62728" stroke-width="4.6" d="M123.06,-293.04C100.93,-230.82 99.87,-168.59 119.87,-106.37"/>
<polygon fill="#d62728" stroke="#d62728" stroke-width="4.6" points="123.72,-107.55 123.12,-96.79 116.1,-104.96 123.72,-107.55"/>
</g>
<!-- LEGEND -->
<g id="node3" class="node">
<title>LEGEND</title>
<polygon fill="#eef3ff" stroke="none" stroke-width="1.8" points="389,-393.5 273,-393.5 273,-285.5 389,-285.5 389,-393.5"/>
<text text-anchor="start" x="278" y="-379.1" font-family="Times New Roman,serif" font-weight="bold" font-size="13.00">Neighbor → Color</text>
<polygon fill="#1f77b4" stroke="none" points="274,-349.5 274,-370.5 324,-370.5 324,-349.5 274,-349.5"/>
<text text-anchor="start" x="328" y="-356.9" font-family="Times New Roman,serif" font-size="12.00">0|0</text>
<polygon fill="#ff7f0e" stroke="none" points="274,-328.5 274,-349.5 324,-349.5 324,-328.5 274,-328.5"/>
<text text-anchor="start" x="328" y="-335.9" font-family="Times New Roman,serif" font-size="12.00">0|1</text>
<polygon fill="#2ca02c" stroke="none" points="274,-307.5 274,-328.5 324,-328.5 324,-307.5 274,-307.5"/>
<text text-anchor="start" x="328" y="-314.9" font-family="Times New Roman,serif" font-size="12.00">1|0</text>
<polygon fill="#d62728" stroke="none" points="274,-286.5 274,-307.5 324,-307.5 324,-286.5 274,-286.5"/>
<text text-anchor="start" x="328" y="-293.9" font-family="Times New Roman,serif" font-size="12.00">1|1</text>
<polygon fill="none" stroke="#5b6ea6" points="273,-285.5 273,-393.5 389,-393.5 389,-285.5 273,-285.5"/>
</g>
<!-- 1&#45;&gt;LEGEND -->
</g>
</svg>
