<?xml version="1.0" encoding="UTF-8" standalone="no"?>
<!DOCTYPE svg PUBLIC "-//W3C//DTD SVG 1.1//EN"
 "http://www.w3.org/Graphics/SVG/1.1/DTD/svg11.dtd">
<!-- Generated by graphviz version 5.0.1 (0)
 -->
<!-- Title: Rule 204 Pages: 1 -->
<svg width="1897pt" height="2104pt"
 viewBox="12.96 12.96 442.28 492.03" xmlns="http://www.w3.org/2000/svg" xmlns:xlink="http://www.w3.org/1999/xlink">
<g id="graph0" class="graph" transform="scale(4.16667 4.16667) rotate(0) translate(33.12 471.87)">
<title>Rule 204</title>
<polygon fill="white" stroke="none" points="-20.16,20.16 -20.16,-458.91 409.16,-458.91 409.16,20.16 -20.16,20.16"/>
<text text-anchor="middle" x="194.5" y="-420.35" font-family="Times New Roman,serif" font-size="18.00">Rule 204</text>
<!-- 0 -->
<g id="node1" class="node">
<title>0</title>
<ellipse fill="#eef3ff" stroke="#5b6ea6" stroke-width="1.8" cx="143.5" cy="-144.5" rx="50.5" ry="50.5"/>
<text text-anchor="middle" x="143.5" y="-140.1" font-family="Times New Roman,serif" font-size="18.00">0</text>
</g>
<!-- 0&#45;&gt;0 -->
<g id="edge1" class="edge">
<title>0:ne&#45;&gt;0:ne</title>
<path fill="none" stroke="#1f77b4" stroke-width="4.6" d="M179.5,-180.5C131.67,-227.5 0,-227.5 0,-180.5 0,-135.79 119.12,-133.61 171.92,-173.95"/>
<polygon fill="#1f77b4" stroke="#1f77b4" stroke-width="4.6" points="169.3,-177.01 179.5,-180.5 174.56,-170.92 169.3,-177.01"/>
</g>
<!-- 0&#45;&gt;0 -->
<g id="edge2" class="edge">
<title>0:se&#45;&gt;0:se</title>
<path fill="none" stroke="#ff7f0e" stroke-width="4.6" d="M179.5,-108.5C225,-155.5 287,-155.5 287,-108.5 287,-63.98 231.37,-61.63 186.82,-101.46"/>
<polygon fill="#ff7f0e" stroke="#ff7f0e" stroke-width="4.6" points="183.92,-98.67 179.5,-108.5 189.5,-104.47 183.92,-98.67"/>
</g>
<!-- 0&#45;&gt;0 -->
<g id="edge3" class="edge">
<title>0:sw&#45;&gt;0:sw</title>
<path fill="none" stroke="#2ca02c" stroke-width="4.6" d="M107.5,-108.5C61,-62.67 61,0 107.5,0 151.55,0 153.87,-56.23 114.47,-101.12"/>
<polygon fill="#2ca02c" stroke="#2ca02c" stroke-width="4.6" points="111.44,-98.47 107.5,-108.5 117.29,-103.99 111.44,-98.47"/>
</g>
<!-- 0&#45;&gt;0 -->
<g id="edge4" class="edge">
<title>0:nw&#45;&gt;0:nw</title>
<path fill="none" stroke="#d62728" stroke-width="4.6" d="M107.5,-180.5C61,-132.33 61,0 107.5,0 151.73,0 153.89,-119.73 113.98,-172.87"/>
<polygon fill="#d62728" stroke="#d62728" stroke-width="4.6" points="110.9,-170.27 107.5,-180.5 117.04,-175.48 110.9,-170.27"/>
</g>
<!-- 1 -->
<g id="node2" class="node">
<title>1</title>
<ellipse fill="#eef3ff" stroke="#5b6ea6" stroke-width="1.8" cx="143.5" cy="-339.5" rx="50.5" ry="50.5"/>
<text text-anchor="middle" x="143.5" y="-335.1" font-family="Times New Roman,serif" font-size="18.00">1</text>
</g>
<!-- 1&#45;&gt;1 -->
<g id="edge5" class="edge">
<title>1:ne&#45;&gt;1:ne</title>
<path fill="none" stroke="#1f77b4" stroke-width="4.6" d="M179.5,-375.5C131.67,-422.5 0,-422.5 0,-375.5 0,-330.79 119.12,-328.61 171.92,-368.95"/>
<polygon fill="#1f77b4" stroke="#1f77b4" stroke-width="4.6" points="169.3,-372.01 179.5,-375.5 174.56,-365.92 169.3,-372.01"/>
</g>
<!-- 1&#45;&gt;1 -->
<g id="edge6" class="edge">
<title>1:se&#45;&gt;1:se</title>
<path fill="none" stroke="#ff7f0e" stroke-width="4.6" d="M179.5,-303.5C225,-350.5 287,-350.5 287,-303.5 287,-258.98 231.37,-256.63 186.82,-296.46"/>
<polygon fill="#ff7f0e" stroke="#ff7f0e" stroke-width="4.6" points="183.92,-293.67 179.5,-303.5 189.5,-299.47 183.92,-293.67"/>
</g>
<!-- 1&#45;&gt;1 -->
<g id="edge7" class="edge">
<title>1:sw&#45;&gt;1:sw</title>
<path fill="none" stroke="#2ca02c" stroke-width="4.6" d="M107.5,-303.5C61,-257.67 61,-195 107.5,-195 151.55,-195 153.87,-251.23 114.47,-296.12"/>
<polygon fill="#2ca02c" stroke="#2ca02c" stroke-width="4.6" points="111.44,-293.47 107.5,-303.5 117.29,-298.99 111.44,-293.47"/>
</g>
<!-- 1&#45;&gt;1 -->
<g id="edge8" class="edge">
<title>1:nw&#45;&gt;1:nw</title>
<path fill="none" stroke="#d62728" stroke-width="4.6" d="M107.5,-375.5C61,-327.33 61,-195 107.5,-195 151.73,-195 153.89,-314.73 113.98,-367.87"/>
<polygon fill="#d62728" stroke="#d62728" stroke-width="4.6" points="110.9,-365.27 107.5,-375.5 117.04,-370.48 110.9,-365.27"/>
</g>
<!-- LEGEND -->
<g id="node3" class="node">
<title>LEGEND</title>
<polygon fill="#eef3ff" stroke="none" stroke-width="1.8" points="389,-393.5 273,-393.5 273,-285.5 389,-285.5 389,-393.5"/>
<text text-anchor="start" x="278" y="-379.1" font-family="Times New Roman,serif" font-weight="bold" font-size="13.00">Neighbor → Color</text>
<polygon fill="#1f77b4" stroke="none" points="274,-349.5 274,-370.5 324,-370.5 324,-349.5 274,-349.5"/>
<text text-anchor="start" x="328" y="-356.9" font-family="Times New Roman,serif" font-size="12.00">0|0</text>
<polygon fill="#ff7f0e" stroke="none" points="274,-328.5 274,-349.5 324,-349.5 324,-328.5 274,-328.5"/>
<text text-anchor="start" x="328" y="-335.9" font-family="Times New Roman,serif" font-size="12.00">0|1</text>
<polygon fill="#2ca02c" stroke="none" points="274,-307.5 274,-328.5 324,-328.5 324,-307.5 274,-307.5"/>
<text text-anchor="start" x="328" y="-314.9" font-family="Times New Roman,serif" font-size="12.00">1|0</text>
<polygon fill="#d62728" stroke="none" points="274,-286.5 274,-307.5 324,-307.5 324,-286.5 274,-286.5"/>
<text text-anchor="start" x="328" y="-293.9" font-family="Times New Roman,serif" font-size="12.00">1|1</text>
<polygon fill="none" stroke="#5b6ea6" points="273,-285.5 273,-393.5 389,-393.5 389,-285.5 273,-285.5"/>
</g>
<!-- 1&#45;&gt;LEGEND -->
</g>
</svg>
