<?xml version="1.0" encoding="UTF-8" standalone="no"?>
<!DOCTYPE svg PUBLIC "-//W3C//DTD SVG 1.1//EN"
 "http://www.w3.org/Graphics/SVG/1.1/DTD/svg11.dtd">
<!-- Generated by graphviz version 5.0.1 (0)
 -->
<!-- Title: Rule 51 Pages: 1 -->
<svg width="1509pt" height="2032pt"
 viewBox="12.96 12.96 349.28 474.78" xmlns="http://www.w3.org/2000/svg" xmlns:xlink="http://www.w3.org/1999/xlink">
<g id="graph0" class="graph" transform="scale(4.16667 4.16667) rotate(0) translate(33.12 454.62)">
<title>Rule 51</title>
<polygon fill="white" stroke="none" points="-20.16,20.16 -20.16,-441.66 316.16,-441.66 316.16,20.16 -20.16,20.16"/>
<text text-anchor="middle" x="148" y="-403.1" font-family="Times New Roman,serif" font-size="18.00">Rule 51</text>
<!-- 0 -->
<g id="node1" class="node">
<title>0</title>
<ellipse fill="#eef3ff" stroke="#5b6ea6" stroke-width="1.8" cx="50.5" cy="-50.5" rx="50.5" ry="50.5"/>
<text text-anchor="middle" x="50.5" y="-46.1" font-family="Times New Roman,serif" font-size="18.00">0</text>
</g>
<!-- 1 -->
<g id="node2" class="node">
<title>1</title>
<ellipse fill="#eef3ff" stroke="#5b6ea6" stroke-width="1.8" cx="50.5" cy="-339.5" rx="50.5" ry="50.5"/>
<text text-anchor="middle" x="50.5" y="-335.1" font-family="Times New Roman,serif" font-size="18.00">1</text>
</g>
<!-- 0&#45;&gt;1 -->
<g id="edge1" class="edge">
<title>0&#45;&gt;1</title>
<path fill="none" stroke="#1f77b4" stroke-width="4.6" d="M70.88,-96.79C93.05,-159.01 94.15,-221.24 74.18,-283.46"/>
<polygon fill="#1f77b4" stroke="#1f77b4" stroke-width="4.6" points="70.33,-282.28 70.94,-293.04 77.96,-284.86 70.33,-282.28"/>
</g>
<!-- 0&#45;&gt;1 -->
<g id="edge2" class="edge">
<title>0&#45;&gt;1</title>
<path fill="none" stroke="#ff7f0e" stroke-width="4.6" d="M65.55,-98.76C80.73,-159.61 81.51,-220.46 67.9,-281.3"/>
<polygon fill="#ff7f0e" stroke="#ff7f0e" stroke-width="4.6" points="63.98,-280.41 65.6,-291.07 71.81,-282.26 63.98,-280.41"/>
</g>
<!-- 0&#45;&gt;1 -->
<g id="edge3" class="edge">
<title>0&#45;&gt;1</title>
<path fill="none" stroke="#2ca02c" stroke-width="4.6" d="M59.74,-100.17C68.55,-159.95 69.03,-219.72 61.18,-279.5"/>
<polygon fill="#2ca02c" stroke="#2ca02c" stroke-width="4.6" points="57.18,-279.02 59.79,-289.48 65.16,-280.13 57.18,-279.02"/>
</g>
<!-- 0&#45;&gt;1 -->
<g id="edge4" class="edge">
<title>0&#45;&gt;1</title>
<path fill="none" stroke="#d62728" stroke-width="4.6" d="M53.62,-101.02C56.5,-160.17 56.66,-219.32 54.11,-278.46"/>
<polygon fill="#d62728" stroke="#d62728" stroke-width="4.6" points="50.07,-278.56 53.63,-288.73 58.11,-278.92 50.07,-278.56"/>
</g>
<!-- 1&#45;&gt;0 -->
<g id="edge5" class="edge">
<title>1&#45;&gt;0</title>
<path fill="none" stroke="#1f77b4" stroke-width="4.6" d="M47.37,-288.73C44.49,-229.58 44.34,-170.43 46.91,-111.28"/>
<polygon fill="#1f77b4" stroke="#1f77b4" stroke-width="4.6" points="50.94,-111.19 47.38,-101.02 42.9,-110.82 50.94,-111.19"/>
</g>
<!-- 1&#45;&gt;0 -->
<g id="edge6" class="edge">
<title>1&#45;&gt;0</title>
<path fill="none" stroke="#ff7f0e" stroke-width="4.6" d="M41.21,-289.48C32.43,-229.71 31.98,-169.93 39.86,-110.16"/>
<polygon fill="#ff7f0e" stroke="#ff7f0e" stroke-width="4.6" points="43.86,-110.63 41.26,-100.17 35.89,-109.52 43.86,-110.63"/>
</g>
<!-- 1&#45;&gt;0 -->
<g id="edge7" class="edge">
<title>1&#45;&gt;0</title>
<path fill="none" stroke="#2ca02c" stroke-width="4.6" d="M35.4,-291.07C20.26,-230.22 19.5,-169.37 33.13,-108.53"/>
<polygon fill="#2ca02c" stroke="#2ca02c" stroke-width="4.6" points="37.06,-109.42 35.45,-98.76 29.23,-107.56 37.06,-109.42"/>
</g>
<!-- 1&#45;&gt;0 -->
<g id="edge8" class="edge">
<title>1&#45;&gt;0</title>
<path fill="none" stroke="#d62728" stroke-width="4.6" d="M30.06,-293.04C7.93,-230.82 6.87,-168.59 26.87,-106.37"/>
<polygon fill="#d62728" stroke="#d62728" stroke-width="4.6" points="30.72,-107.55 30.12,-96.79 23.1,-104.96 30.72,-107.55"/>
</g>
<!-- LEGEND -->
<g id="node3" class="node">
<title>LEGEND</title>
<polygon fill="#eef3ff" stroke="none" stroke-width="1.8" points="296,-393.5 180,-393.5 180,-285.5 296,-285.5 296,-393.5"/>
<text text-anchor="start" x="185" y="-379.1" font-family="Times New Roman,serif" font-weight="bold" font-size="13.00">Neighbor → Color</text>
<polygon fill="#1f77b4" stroke="none" points="181,-349.5 181,-370.5 231,-370.5 231,-349.5 181,-349.5"/>
<text text-anchor="start" x="235" y="-356.9" font-family="Times New Roman,serif" font-size="12.00">0|0</text>
<polygon fill="#ff7f0e" stroke="none" points="181,-328.5 181,-349.5 231,-349.5 231,-328.5 181,-328.5"/>
<text text-anchor="start" x="235" y="-335.9" font-family="Times New Roman,serif" font-size="12.00">0|1</text>
<polygon fill="#2ca02c" stroke="none" points="181,-307.5 181,-328.5 231,-328.5 231,-307.5 181,-307.5"/>
<text text-anchor="start" x="235" y="-314.9" font-family="Times New Roman,serif" font-size="12.00">1|0</text>
<polygon fill="#d62728" stroke="none" points="181,-286.5 181,-307.5 231,-307.5 231,-286.5 181,-286.5"/>
<text text-anchor="start" x="235" y="-293.9" font-family="Times New Roman,serif" font-size="12.00">1|1</text>
<polygon fill="none" stroke="#5b6ea6" points="180,-285.5 180,-393.5 296,-393.5 296,-285.5 180,-285.5"/>
</g>
<!-- 1&#45;&gt;LEGEND -->
</g>
</svg>
