<?xml version="1.0" encoding="UTF-8" standalone="no"?>
<!DOCTYPE svg PUBLIC "-//W3C//DTD SVG 1.1//EN"
 "http://www.w3.org/Graphics/SVG/1.1/DTD/svg11.dtd">
<!-- Generated by graphviz version 5.0.1 (0)
 -->
<!-- Title: Rule 224 Pages: 1 -->
<svg width="1897pt" height="2496pt"
 viewBox="12.96 12.96 442.28 586.03" xmlns="http://www.w3.org/2000/svg" xmlns:xlink="http://www.w3.org/1999/xlink">
<g id="graph0" class="graph" transform="scale(4.16667 4.16667) rotate(0) translate(33.12 565.87)">
<title>Rule 224</title>
<polygon fill="white" stroke="none" points="-20.16,20.16 -20.16,-552.91 409.16,-552.91 409.16,20.16 -20.16,20.16"/>
<text text-anchor="middle" x="194.5" y="-514.35" font-family="Times New Roman,serif" font-size="18.00">Rule 224</text>
<!-- 0 -->
<g id="node1" class="node">
<title>0</title>
<ellipse fill="#eef3ff" stroke="#5b6ea6" stroke-width="1.8" cx="143.5" cy="-144.5" rx="50.5" ry="50.5"/>
<text text-anchor="middle" x="143.5" y="-140.1" font-family="Times New Roman,serif" font-size="18.00">0</text>
</g>
<!-- 0&#45;&gt;0 -->
<g id="edge1" class="edge">
<title>0:ne&#45;&gt;0:ne</title>
<path fill="none" stroke="#1f77b4" stroke-width="4.6" d="M179.5,-180.5C131.67,-227.5 0,-227.5 0,-180.5 0,-135.79 119.12,-133.61 171.92,-173.95"/>
<polygon fill="#1f77b4" stroke="#1f77b4" stroke-width="4.6" points="169.3,-177.01 179.5,-180.5 174.56,-170.92 169.3,-177.01"/>
</g>
<!-- 0&#45;&gt;0 -->
<g id="edge2" class="edge">
<title>0:se&#45;&gt;0:se</title>
<path fill="none" stroke="#ff7f0e" stroke-width="4.6" d="M179.5,-108.5C225,-155.5 287,-155.5 287,-108.5 287,-63.98 231.37,-61.63 186.82,-101.46"/>
<polygon fill="#ff7f0e" stroke="#ff7f0e" stroke-width="4.6" points="183.92,-98.67 179.5,-108.5 189.5,-104.47 183.92,-98.67"/>
</g>
<!-- 0&#45;&gt;0 -->
<g id="edge3" class="edge">
<title>0:sw&#45;&gt;0:sw</title>
<path fill="none" stroke="#2ca02c" stroke-width="4.6" d="M107.5,-108.5C61,-62.67 61,0 107.5,0 151.55,0 153.87,-56.23 114.47,-101.12"/>
<polygon fill="#2ca02c" stroke="#2ca02c" stroke-width="4.6" points="111.44,-98.47 107.5,-108.5 117.29,-103.99 111.44,-98.47"/>
</g>
<!-- 1 -->
<g id="node2" class="node">
<title>1</title>
<ellipse fill="#eef3ff" stroke="#5b6ea6" stroke-width="1.8" cx="143.5" cy="-433.5" rx="50.5" ry="50.5"/>
<text text-anchor="middle" x="143.5" y="-429.1" font-family="Times New Roman,serif" font-size="18.00">1</text>
</g>
<!-- 0&#45;&gt;1 -->
<g id="edge4" class="edge">
<title>0&#45;&gt;1</title>
<path fill="none" stroke="#d62728" stroke-width="4.6" d="M163.88,-190.79C186.05,-253.01 187.15,-315.24 167.18,-377.46"/>
<polygon fill="#d62728" stroke="#d62728" stroke-width="4.6" points="163.33,-376.28 163.94,-387.04 170.96,-378.86 163.33,-376.28"/>
</g>
<!-- 1&#45;&gt;0 -->
<g id="edge5" class="edge">
<title>1&#45;&gt;0</title>
<path fill="none" stroke="#1f77b4" stroke-width="4.6" d="M143.5,-382.73C143.5,-323.58 143.5,-264.43 143.5,-205.28"/>
<polygon fill="#1f77b4" stroke="#1f77b4" stroke-width="4.6" points="147.53,-205.02 143.5,-195.02 139.48,-205.02 147.53,-205.02"/>
</g>
<!-- 1&#45;&gt;0 -->
<g id="edge6" class="edge">
<title>1&#45;&gt;0</title>
<path fill="none" stroke="#ff7f0e" stroke-width="4.6" d="M123.06,-387.04C100.93,-324.82 99.87,-262.59 119.87,-200.37"/>
<polygon fill="#ff7f0e" stroke="#ff7f0e" stroke-width="4.6" points="123.72,-201.55 123.12,-190.79 116.1,-198.96 123.72,-201.55"/>
</g>
<!-- 1&#45;&gt;1 -->
<g id="edge7" class="edge">
<title>1:ne&#45;&gt;1:ne</title>
<path fill="none" stroke="#2ca02c" stroke-width="4.6" d="M179.5,-469.5C131.67,-516.5 0,-516.5 0,-469.5 0,-424.79 119.12,-422.61 171.92,-462.95"/>
<polygon fill="#2ca02c" stroke="#2ca02c" stroke-width="4.6" points="169.3,-466.01 179.5,-469.5 174.56,-459.92 169.3,-466.01"/>
</g>
<!-- 1&#45;&gt;1 -->
<g id="edge8" class="edge">
<title>1:se&#45;&gt;1:se</title>
<path fill="none" stroke="#d62728" stroke-width="4.6" d="M179.5,-397.5C225,-444.5 287,-444.5 287,-397.5 287,-352.98 231.37,-350.63 186.82,-390.46"/>
<polygon fill="#d62728" stroke="#d62728" stroke-width="4.6" points="183.92,-387.67 179.5,-397.5 189.5,-393.47 183.92,-387.67"/>
</g>
<!-- LEGEND -->
<g id="node3" class="node">
<title>LEGEND</title>
<polygon fill="#eef3ff" stroke="none" stroke-width="1.8" points="389,-487.5 273,-487.5 273,-379.5 389,-379.5 389,-487.5"/>
<text text-anchor="start" x="278" y="-473.1" font-family="Times New Roman,serif" font-weight="bold" font-size="13.00">Neighbor → Color</text>
<polygon fill="#1f77b4" stroke="none" points="274,-443.5 274,-464.5 324,-464.5 324,-443.5 274,-443.5"/>
<text text-anchor="start" x="328" y="-450.9" font-family="Times New Roman,serif" font-size="12.00">0|0</text>
<polygon fill="#ff7f0e" stroke="none" points="274,-422.5 274,-443.5 324,-443.5 324,-422.5 274,-422.5"/>
<text text-anchor="start" x="328" y="-429.9" font-family="Times New Roman,serif" font-size="12.00">0|1</text>
<polygon fill="#2ca02c" stroke="none" points="274,-401.5 274,-422.5 324,-422.5 324,-401.5 274,-401.5"/>
<text text-anchor="start" x="328" y="-408.9" font-family="Times New Roman,serif" font-size="12.00">1|0</text>
<polygon fill="#d62728" stroke="none" points="274,-380.5 274,-401.5 324,-401.5 324,-380.5 274,-380.5"/>
<text text-anchor="start" x="328" y="-387.9" font-family="Times New Roman,serif" font-size="12.00">1|1</text>
<polygon fill="none" stroke="#5b6ea6" points="273,-379.5 273,-487.5 389,-487.5 389,-379.5 273,-379.5"/>
</g>
<!-- 1&#45;&gt;LEGEND -->
</g>
</svg>
