<?xml version="1.0" encoding="UTF-8" standalone="no"?>
<!DOCTYPE svg PUBLIC "-//W3C//DTD SVG 1.1//EN"
 "http://www.w3.org/Graphics/SVG/1.1/DTD/svg11.dtd">
<!-- Generated by graphviz version 5.0.1 (0)
 -->
<!-- Title: Rule 110 Pages: 1 -->
<svg width="1897pt" height="2191pt"
 viewBox="12.96 12.96 442.28 512.98" xmlns="http://www.w3.org/2000/svg" xmlns:xlink="http://www.w3.org/1999/xlink">
<g id="graph0" class="graph" transform="scale(4.16667 4.16667) rotate(0) translate(33.12 492.82)">
<title>Rule 110</title>
<polygon fill="white" stroke="none" points="-20.16,20.16 -20.16,-479.86 409.16,-479.86 409.16,20.16 -20.16,20.16"/>
<text text-anchor="middle" x="194.5" y="-441.3" font-family="Times New Roman,serif" font-size="18.00">Rule 110</text>
<!-- 0 -->
<g id="node1" class="node">
<title>0</title>
<ellipse fill="#eef3ff" stroke="#5b6ea6" stroke-width="1.8" cx="143.5" cy="-71.45" rx="50.5" ry="50.5"/>
<text text-anchor="middle" x="143.5" y="-67.05" font-family="Times New Roman,serif" font-size="18.00">0</text>
</g>
<!-- 0&#45;&gt;0 -->
<g id="edge1" class="edge">
<title>0:ne&#45;&gt;0:ne</title>
<path fill="none" stroke="#1f77b4" stroke-width="4.6" d="M179.5,-107.45C131.67,-154.45 0,-154.45 0,-107.45 0,-62.74 119.12,-60.56 171.92,-100.9"/>
<polygon fill="#1f77b4" stroke="#1f77b4" stroke-width="4.6" points="169.3,-103.95 179.5,-107.45 174.56,-97.86 169.3,-103.95"/>
</g>
<!-- 0&#45;&gt;0 -->
<g id="edge3" class="edge">
<title>0:se&#45;&gt;0:se</title>
<path fill="none" stroke="#2ca02c" stroke-width="4.6" d="M179.5,-35.45C225,-82.45 287,-82.45 287,-35.45 287,9.08 231.37,11.42 186.82,-28.4"/>
<polygon fill="#2ca02c" stroke="#2ca02c" stroke-width="4.6" points="183.92,-25.61 179.5,-35.45 189.5,-31.42 183.92,-25.61"/>
</g>
<!-- 1 -->
<g id="node2" class="node">
<title>1</title>
<ellipse fill="#eef3ff" stroke="#5b6ea6" stroke-width="1.8" cx="143.5" cy="-360.45" rx="50.5" ry="50.5"/>
<text text-anchor="middle" x="143.5" y="-356.05" font-family="Times New Roman,serif" font-size="18.00">1</text>
</g>
<!-- 0&#45;&gt;1 -->
<g id="edge2" class="edge">
<title>0&#45;&gt;1</title>
<path fill="none" stroke="#ff7f0e" stroke-width="4.6" d="M163.88,-117.73C186.05,-179.96 187.15,-242.18 167.18,-304.41"/>
<polygon fill="#ff7f0e" stroke="#ff7f0e" stroke-width="4.6" points="163.33,-303.23 163.94,-313.99 170.96,-305.81 163.33,-303.23"/>
</g>
<!-- 0&#45;&gt;1 -->
<g id="edge4" class="edge">
<title>0&#45;&gt;1</title>
<path fill="none" stroke="#d62728" stroke-width="4.6" d="M143.5,-121.96C143.5,-181.11 143.5,-240.26 143.5,-299.41"/>
<polygon fill="#d62728" stroke="#d62728" stroke-width="4.6" points="139.48,-299.67 143.5,-309.67 147.53,-299.68 139.48,-299.67"/>
</g>
<!-- 1&#45;&gt;0 -->
<g id="edge8" class="edge">
<title>1&#45;&gt;0</title>
<path fill="none" stroke="#d62728" stroke-width="4.6" d="M123.06,-313.99C100.93,-251.76 99.87,-189.54 119.87,-127.31"/>
<polygon fill="#d62728" stroke="#d62728" stroke-width="4.6" points="123.72,-128.49 123.12,-117.73 116.1,-125.91 123.72,-128.49"/>
</g>
<!-- 1&#45;&gt;1 -->
<g id="edge5" class="edge">
<title>1:ne&#45;&gt;1:ne</title>
<path fill="none" stroke="#1f77b4" stroke-width="4.6" d="M179.5,-396.45C131.67,-443.45 0,-443.45 0,-396.45 0,-351.74 119.12,-349.56 171.92,-389.9"/>
<polygon fill="#1f77b4" stroke="#1f77b4" stroke-width="4.6" points="169.3,-392.95 179.5,-396.45 174.56,-386.86 169.3,-392.95"/>
</g>
<!-- 1&#45;&gt;1 -->
<g id="edge6" class="edge">
<title>1:se&#45;&gt;1:se</title>
<path fill="none" stroke="#ff7f0e" stroke-width="4.6" d="M179.5,-324.45C225,-371.45 287,-371.45 287,-324.45 287,-279.92 231.37,-277.58 186.82,-317.4"/>
<polygon fill="#ff7f0e" stroke="#ff7f0e" stroke-width="4.6" points="183.92,-314.61 179.5,-324.45 189.5,-320.42 183.92,-314.61"/>
</g>
<!-- 1&#45;&gt;1 -->
<g id="edge7" class="edge">
<title>1:sw&#45;&gt;1:sw</title>
<path fill="none" stroke="#2ca02c" stroke-width="4.6" d="M107.5,-324.45C61,-278.61 61,-215.95 107.5,-215.95 151.55,-215.95 153.87,-272.18 114.47,-317.07"/>
<polygon fill="#2ca02c" stroke="#2ca02c" stroke-width="4.6" points="111.44,-314.41 107.5,-324.45 117.29,-319.94 111.44,-314.41"/>
</g>
<!-- LEGEND -->
<g id="node3" class="node">
<title>LEGEND</title>
<polygon fill="#eef3ff" stroke="none" stroke-width="1.8" points="389,-414.45 273,-414.45 273,-306.45 389,-306.45 389,-414.45"/>
<text text-anchor="start" x="278" y="-400.05" font-family="Times New Roman,serif" font-weight="bold" font-size="13.00">Neighbor → Color</text>
<polygon fill="#1f77b4" stroke="none" points="274,-370.45 274,-391.45 324,-391.45 324,-370.45 274,-370.45"/>
<text text-anchor="start" x="328" y="-377.85" font-family="Times New Roman,serif" font-size="12.00">0|0</text>
<polygon fill="#ff7f0e" stroke="none" points="274,-349.45 274,-370.45 324,-370.45 324,-349.45 274,-349.45"/>
<text text-anchor="start" x="328" y="-356.85" font-family="Times New Roman,serif" font-size="12.00">0|1</text>
<polygon fill="#2ca02c" stroke="none" points="274,-328.45 274,-349.45 324,-349.45 324,-328.45 274,-328.45"/>
<text text-anchor="start" x="328" y="-335.85" font-family="Times New Roman,serif" font-size="12.00">1|0</text>
<polygon fill="#d62728" stroke="none" points="274,-307.45 274,-328.45 324,-328.45 324,-307.45 274,-307.45"/>
<text text-anchor="start" x="328" y="-314.85" font-family="Times New Roman,serif" font-size="12.00">1|1</text>
<polygon fill="none" stroke="#5b6ea6" points="273,-306.45 273,-414.45 389,-414.45 389,-306.45 273,-306.45"/>
</g>
<!-- 1&#45;&gt;LEGEND -->
</g>
</svg>
